<svg xmlns="http://www.w3.org/2000/svg" xmlns:xlink="http://www.w3.org/1999/xlink" version="1.1" width="1200pt" height="1200pt" viewBox="0 0 1200 1200">
<defs>
<clipPath id="clip_0">
<path transform="matrix(1,0,0,-1,0,1200)" d="M0 1200H1200V0H0Z"/>
</clipPath>
</defs>
<g id="layer_1" data-name="Layer 1">
<g clip-path="url(#clip_0)">
<path transform="matrix(1,0,0,-1,606.4453,491.1294)" d="M0 0C70.952 38.471 139.906 75.858 209.206 113.432 243.565 75.884 276.667 39.709 310.456 2.785 246.296-22.375 183.951-46.822 120.032-71.886 81.278-48.677 41.51-24.86 0 0" fill="#383838"/>
<path transform="matrix(1,0,0,-1,260.6636,487.0664)" d="M0 0C32.479 36.776 64.385 72.903 96.826 109.636 166.802 71.582 235.42 34.267 305.305-3.737 265.723-27.57 226.141-51.403 186.559-75.236 124.372-50.157 62.186-25.079 0 0" fill="#022897"/>
<path transform="matrix(1,0,0,-1,823.1807,616.6084)" d="M0 0C-25.766 15.072-51.639 30.207-80.405 47.035-17.552 70.187 43.209 92.567 105.223 115.41 125.863 92.691 146.25 70.252 167.82 46.51 111.182 30.813 56.201 15.576 0 0" fill="#383838"/>
<path transform="matrix(1,0,0,-1,350.8521,616.7422)" d="M0 0C-53.943 15.79-107.875 31.576-164.137 48.044-144.147 71.007-125.232 92.734-105.102 115.859-43.208 92.768 18.645 69.692 82.325 45.935 54.024 30.144 27.574 15.385 0 0" fill="#022897"/>
<path transform="matrix(1,0,0,-1,467.3633,566.6523)" d="M0 0C40.397 21.313 80.795 42.626 121.193 63.94 161.462 42.206 201.731 20.473 242-1.261 201.191-16.788 160.383-32.315 119.574-47.843 79.716-31.895 39.858-15.947 0 0" fill="#022897"/>
<path transform="matrix(1,0,0,-1,831.1514,622.0586)" d="M0 0C56.379 15.4 110.214 30.105 165.797 45.287 179.314 30.921 192.852 16.535 207.729 .724 184.94-4.571 164.234-9.487 143.479-14.18 117.646-20.019 91.837-25.998 65.863-31.141 60.469-32.209 53.586-31.399 48.794-28.832 33.123-20.438 18.102-10.833 0 0" fill="#383838"/>
<path transform="matrix(1,0,0,-1,136.1123,621.2969)" d="M0 0 42.5 44.525 203.646 0 152.292-36.302Z" fill="#022897"/>
<path transform="matrix(1,0,0,-1,302.5708,657.5986)" d="M0 0 61.094 33.646 173.542 0 110.746-25.677Z" fill="#022897"/>
<path transform="matrix(1,0,0,-1,422.7427,685.2891)" d="M0 0 65.486 26.194 149.963-.328 81.858-20.629Z" fill="#022897"/>
<path transform="matrix(1,0,0,-1,370.0259,619.1484)" d="M0 0 82.84 44.204 202.68-1.31 116.893-36.345Z" fill="#022897"/>
<path transform="matrix(1,0,0,-1,501.3262,655.4932)" d="M0 0 87.037 31.54 174.193-1.965 88.406-28.813Z" fill="#022897"/>
<path transform="matrix(1,0,0,-1,604.1396,621.1123)" d="M0 0 120.822 44.341 200.388 0 88.406-36.346Z" fill="#022897"/>
<path transform="matrix(1,0,0,-1,602.1748,686.2715)" d="M0 0 82.513 25.539 151.273 0 67.451-19.646Z" fill="#383838"/>
<path transform="matrix(1,0,0,-1,704.334,657.458)" d="M0 0 111.981 33.505 171.574 0 57.34-26.849Z" fill="#383838"/>
<path transform="matrix(1,0,0,-1,287.9482,482.88569)" d="M0 0C0-2.482-2.013-4.495-4.496-4.495-6.978-4.495-8.991-2.482-8.991 0-8.991 2.483-6.978 4.495-4.496 4.495-2.013 4.495 0 2.483 0 0" fill="#ffffff"/>
<path transform="matrix(1,0,0,-1,365.4912,394.6665)" d="M0 0C0-2.482-2.013-4.495-4.495-4.495-6.978-4.495-8.991-2.482-8.991 0-8.991 2.483-6.978 4.496-4.495 4.496-2.013 4.496 0 2.483 0 0" fill="#ffffff"/>
<path transform="matrix(1,0,0,-1,544.7393,491.87599)" d="M0 0C0-2.483-2.012-4.496-4.495-4.496-6.978-4.496-8.99-2.483-8.99 0-8.99 2.482-6.978 4.495-4.495 4.495-2.012 4.495 0 2.482 0 0" fill="#ffffff"/>
<path transform="matrix(1,0,0,-1,452.0249,549.1904)" d="M0 0C0-2.483-2.013-4.496-4.495-4.496-6.978-4.496-8.991-2.483-8.991 0-8.991 2.482-6.978 4.495-4.495 4.495-2.013 4.495 0 2.482 0 0" fill="#ffffff"/>
<path transform="matrix(1,0,0,-1,252.1099,513.6665)" d="M0 0C0-2.483-2.013-4.496-4.495-4.496-6.978-4.496-8.99-2.483-8.99 0-8.99 2.482-6.978 4.495-4.495 4.495-2.013 4.495 0 2.482 0 0" fill="#ffffff"/>
<path transform="matrix(1,0,0,-1,353.2441,605.3809)" d="M0 0C0-2.483-2.013-4.496-4.496-4.496-6.978-4.496-8.991-2.483-8.991 0-8.991 2.482-6.978 4.495-4.496 4.495-2.013 4.495 0 2.482 0 0" fill="#ffffff"/>
<path transform="matrix(1,0,0,-1,414.8115,573.105)" d="M0 0C0-2.482-2.013-4.495-4.495-4.495-6.978-4.495-8.991-2.482-8.991 0-8.991 2.483-6.978 4.495-4.495 4.495-2.013 4.495 0 2.483 0 0" fill="#ffffff"/>
<path transform="matrix(1,0,0,-1,208.4106,564.0156)" d="M0 0C0-2.483-2.012-4.495-4.495-4.495-6.978-4.495-8.99-2.483-8.99 0-8.99 2.482-6.978 4.495-4.495 4.495-2.012 4.495 0 2.482 0 0" fill="#ffffff"/>
<path transform="matrix(1,0,0,-1,184.5645,586.3564)" d="M0 0C0-2.119-1.718-3.837-3.837-3.837-5.956-3.837-7.674-2.119-7.674 0-7.674 2.119-5.956 3.837-3.837 3.837-1.718 3.837 0 2.119 0 0" fill="#ffffff"/>
<path transform="matrix(1,0,0,-1,153.5615,617.1846)" d="M0 0C0-2.119-1.718-3.837-3.837-3.837-5.956-3.837-7.674-2.119-7.674 0-7.674 2.119-5.956 3.837-3.837 3.837-1.718 3.837 0 2.119 0 0" fill="#ffffff"/>
<path transform="matrix(1,0,0,-1,326.6602,623.9531)" d="M0 0C0-2.119-1.718-3.837-3.837-3.837-5.956-3.837-7.674-2.119-7.674 0-7.674 2.119-5.956 3.837-3.837 3.837-1.718 3.837 0 2.119 0 0" fill="#ffffff"/>
<path transform="matrix(1,0,0,-1,289.127,649.7773)" d="M0 0C0-2.119-1.718-3.837-3.837-3.837-5.956-3.837-7.674-2.119-7.674 0-7.674 2.119-5.956 3.837-3.837 3.837-1.718 3.837 0 2.119 0 0" fill="#ffffff"/>
<path transform="matrix(1,0,0,-1,247.5801,744.0742)" d="M0 0C-2.923 0-5.517-.854-7.778-2.558-10.04-4.264-11.954-6.665-13.52-9.761-15.085-12.859-16.27-16.583-17.069-20.932-17.87-25.281-18.27-30.137-18.27-35.495-18.27-40.785-17.94-45.622-17.278-50.007-16.617-54.391-15.573-58.133-14.146-61.229-12.72-64.327-10.841-66.728-8.509-68.433-6.177-70.139-3.341-70.99 0-70.99 1.809-70.99 3.479-70.713 5.011-70.155 3.618-68.416 1.947-66.955 0-65.771-1.949-64.588-4.316-63.995-7.099-63.995V-62.742C-6.404-62.604-5.517-62.465-4.437-62.325-3.358-62.187-2.124-62.116-.731-62.116 1.217-62.116 3.323-62.273 5.585-62.587 7.846-62.899 10.091-63.544 12.319-64.518 14.475-61.386 16.007-57.366 16.913-52.46 17.816-47.553 18.27-41.899 18.27-35.495 18.27-30.137 17.868-25.281 17.069-20.932 16.268-16.583 15.085-12.859 13.52-9.761 11.954-6.665 10.038-4.264 7.777-2.558 5.515-.854 2.923 0 0 0M0-72.243C-5.499-72.243-10.388-71.287-14.668-69.372-18.948-67.459-22.55-64.83-25.473-61.49-28.396-58.149-30.606-54.252-32.102-49.798-33.6-45.345-34.347-40.576-34.347-35.495-34.347-30.416-33.6-25.647-32.102-21.192-30.606-16.739-28.396-12.841-25.473-9.5-22.55-6.16-18.948-3.533-14.668-1.618-10.388 .296-5.499 1.253 0 1.253 5.567 1.253 10.474 .296 14.72-1.618 18.965-3.533 22.55-6.16 25.473-9.5 28.396-12.841 30.605-16.739 32.103-21.192 33.598-25.647 34.347-30.416 34.347-35.495 34.347-42.455 32.954-48.789 30.171-54.496 27.386-60.203 23.315-64.622 17.957-67.754 18.931-68.521 19.836-69.356 20.671-70.26 21.506-71.165 22.237-72.173 22.863-73.287 23.698-74.679 24.585-76.262 25.525-78.037 26.465-79.813 27.509-81.551 28.657-83.257 29.806-84.962 31.04-86.509 32.363-87.903 33.685-89.295 35.182-90.304 36.853-90.93V-91.139H17.122L7.099-73.287C6.959-73.008 6.802-72.747 6.629-72.504 6.455-72.26 6.298-72.034 6.16-71.825 5.184-71.966 4.192-72.069 3.184-72.139 2.174-72.208 1.112-72.243 0-72.243" fill="#383838"/>
<path transform="matrix(1,0,0,-1,290.7993,776.75)" d="M0 0C0 1.947-.261 3.914-.783 5.897-1.305 7.882-2.542 9.359-4.489 10.334V10.439C-1.357 11.204 1.723 12.196 4.75 13.414 7.777 14.632 10.613 16.076 13.258 17.747H13.467V-23.073C13.467-26.205 14.041-28.501 15.189-29.963 16.338-31.425 17.886-32.154 19.835-32.154 22.827-32.154 26.238-30.693 30.066-27.771L37.374-22.237V0C37.374 1.947 37.113 3.914 36.591 5.897 36.069 7.882 34.833 9.359 32.885 10.334V10.439C36.017 11.204 39.097 12.196 42.125 13.414 45.152 14.632 47.987 16.076 50.633 17.747H50.841V-29.858C50.841-31.042 51.119-31.894 51.677-32.416 52.233-32.938 52.894-33.198 53.66-33.198 54.564-33.198 55.521-32.886 56.531-32.26 57.54-31.633 58.393-30.833 59.089-29.858V-29.963C58.114-33.235 56.427-35.67 54.026-37.271 51.625-38.872 49.206-39.672 46.77-39.672 44.265-39.672 42.072-38.872 40.193-37.271 38.313-35.67 37.374-33.198 37.374-29.858V-23.803L22.654-35.078C20.635-36.681 18.547-37.845 16.39-38.575 14.232-39.307 12.179-39.672 10.231-39.672 7.308-39.672 4.871-38.837 2.923-37.167 .974-35.495 0-32.99 0-29.649Z" fill="#383838"/>
<path transform="matrix(1,0,0,-1,407.9321,790.32229)" d="M0 0 13.467 11.484V-25.995H13.363C12.249-25.786 11.152-25.647 10.074-25.577 8.994-25.509 7.898-25.474 6.786-25.474 5.671-25.474 4.576-25.509 3.497-25.577 2.417-25.647 1.321-25.786 .208-25.995H0ZM-22.445 13.781C-23.072 12.179-24.03 10.631-25.316 9.135-26.605 7.638-28.015 6.193-29.545 4.802-31.077 3.409-32.677 2.018-34.347 .626-36.017-.767-37.515-2.192-38.836-3.653-40.159-5.115-41.255-6.613-42.125-8.143-42.996-9.675-43.43-11.312-43.43-13.05-43.43-14.373-43.152-15.556-42.594-16.6-42.039-17.644-41.325-18.497-40.454-19.157-39.585-19.819-38.575-20.323-37.427-20.67-36.278-21.021-35.114-21.192-33.929-21.192-32.538-21.192-31.146-20.968-29.753-20.515-28.362-20.062-27.144-19.384-26.099-18.479L-22.445-15.347ZM50.946-16.182C50.946-17.366 51.223-18.218 51.781-18.739 52.337-19.262 52.998-19.522 53.765-19.522 54.668-19.522 55.626-19.209 56.636-18.582 57.644-17.956 58.497-17.157 59.193-16.182V-16.286C58.218-19.558 56.531-21.994 54.13-23.595 51.729-25.196 49.275-25.995 46.77-25.995 44.333-25.995 42.177-25.196 40.297-23.595 38.418-21.994 37.479-19.522 37.479-16.182V14.929C37.479 18.061 36.869 20.41 35.652 21.976 34.433 23.542 32.815 24.324 30.797 24.324 27.874 24.324 24.568 22.759 20.879 19.627L-28.709-22.758C-29.894-23.803-31.512-24.622-33.564-25.212-35.618-25.803-37.792-26.1-40.089-26.1-42.039-26.1-43.952-25.854-45.831-25.368-47.71-24.883-49.398-24.116-50.894-23.072-52.392-22.028-53.608-20.688-54.548-19.053-55.488-17.418-55.957-15.45-55.957-13.154-55.957-10.51-55.122-8.18-53.452-6.16-51.781-4.142-49.711-2.315-47.24-.679-44.771 .955-42.09 2.453-39.202 3.811-36.314 5.168-33.634 6.541-31.163 7.934-28.693 9.325-26.621 10.788-24.951 12.319-23.281 13.85-22.445 15.59-22.445 17.539-22.445 20.113-23.212 21.94-24.742 23.02-26.274 24.099-28.153 24.638-30.38 24.638-32.747 24.638-35.148 24.168-37.583 23.229-40.02 22.289-42.004 21.157-43.534 19.836L-43.639 20.148C-42.456 21.888-41.012 23.454-39.306 24.847-37.602 26.238-35.74 27.404-33.721 28.344-31.703 29.283-29.615 30.015-27.457 30.536-25.3 31.059-23.247 31.319-21.297 31.319-17.888 31.319-14.981 30.536-12.58 28.971-10.179 27.404-8.978 24.915-8.978 21.506V-3.759L0 3.967V47.396C0 49.415-.261 51.397-.783 53.347-1.305 55.295-2.542 56.756-4.489 57.731V57.94C-1.357 58.635 1.723 59.594 4.75 60.812 7.777 62.028 10.613 63.474 13.258 65.144H13.467V15.555L26.726 26.935C28.673 28.535 30.745 29.735 32.938 30.536 35.13 31.336 37.27 31.736 39.358 31.736 42.559 31.736 45.291 30.866 47.553 29.127 49.814 27.387 50.946 24.847 50.946 21.506Z" fill="#383838"/>
<path transform="matrix(1,0,0,-1,468.7969,750.3379)" d="M0 0C0 1.183 .243 2.227 .731 3.132 1.217 4.035 1.843 4.784 2.61 5.377 3.375 5.967 4.245 6.402 5.22 6.682 6.194 6.959 7.203 7.099 8.248 7.099 10.335 7.099 12.231 6.524 13.937 5.377 15.642 4.228 16.495 2.436 16.495 0 16.495-2.229 15.78-4.228 14.354-6.003 12.927-7.778 11.344-9.327 9.605-10.648 7.864-11.971 6.298-13.015 4.907-13.781 3.514-14.548 2.853-15.034 2.923-15.242 5.567-14.478 8.144-13.556 10.649-12.476 13.154-11.397 15.52-10.127 17.748-8.665H17.957V-66.084H17.852C16.738-65.944 15.642-65.822 14.563-65.719 13.483-65.613 12.388-65.562 11.275-65.562 10.161-65.562 9.065-65.613 7.986-65.719 6.907-65.822 5.811-65.944 4.698-66.084H4.489V-26.412C4.489-24.465 4.229-22.498 3.707-20.515 3.185-18.53 1.948-17.053 0-16.078V-15.973C1.67-15.138 2.61-14.182 2.819-13.102 3.027-12.024 2.923-10.823 2.505-9.5 2.088-8.179 1.566-6.734 .939-5.168 .313-3.602 0-1.879 0 0" fill="#383838"/>
<path transform="matrix(1,0,0,-1,554.1934,776.333)" d="M0 0C-.626-1.602-1.653-3.149-3.079-4.646-4.507-6.143-6.09-7.604-7.83-9.03-9.57-10.457-11.363-11.885-13.206-13.312-15.051-14.738-16.721-16.182-18.217-17.643-19.715-19.104-20.949-20.619-21.923-22.185-22.898-23.751-23.385-25.439-23.385-27.248-23.385-29.685-22.481-31.598-20.67-32.989-18.861-34.382-16.704-35.077-14.198-35.077-12.389-35.077-10.562-34.713-8.717-33.981-6.874-33.251-5.185-32.086-3.654-30.483L0-26.726ZM-35.182 12.005C-32.05 16.182-28.205 19.209-23.646 21.088-19.088 22.967-14.477 23.907-9.813 23.907-6.751 23.907-3.81 23.523-.991 22.759 1.827 21.992 4.297 20.914 6.421 19.522 8.543 18.13 10.248 16.425 11.537 14.407 12.824 12.388 13.468 10.126 13.468 7.621V-39.88H13.363C12.249-39.741 11.153-39.618 10.075-39.515 8.995-39.41 7.899-39.357 6.786-39.357 5.672-39.357 4.576-39.41 3.498-39.515 2.418-39.618 1.321-39.741 .209-39.88H0V-28.396L-6.264-34.765C-8.074-36.644-10.23-38.036-12.736-38.94-15.242-39.844-17.748-40.298-20.253-40.298-22.272-40.298-24.22-40.019-26.099-39.463-27.978-38.906-29.649-38.071-31.11-36.957-32.572-35.845-33.738-34.469-34.607-32.833-35.479-31.198-35.913-29.301-35.913-27.144-35.913-24.499-35.025-22.169-33.25-20.149-31.476-18.131-29.267-16.305-26.621-14.668-23.977-13.034-21.088-11.536-17.956-10.179-14.824-8.821-11.937-7.431-9.291-6.003-6.647-4.577-4.437-3.098-2.662-1.566-.887-.036 0 1.704 0 3.653 0 5.672-.365 7.517-1.096 9.188-1.827 10.857-2.854 12.301-4.176 13.52-5.499 14.736-7.064 15.694-8.874 16.391-10.684 17.086-12.702 17.435-14.929 17.435-18.966 17.435-23.403 16.112-28.239 13.468-33.077 10.821-37.862 6.402-42.594 .209V-39.88H-42.698C-43.812-39.741-44.909-39.618-45.987-39.515-47.066-39.41-48.163-39.357-49.275-39.357-50.39-39.357-51.485-39.41-52.563-39.515-53.644-39.618-54.774-39.741-55.957-39.88H-56.061V-.313C-56.061 1.704-56.322 3.688-56.844 5.638-57.366 7.585-58.603 9.047-60.55 10.022V10.231C-57.418 10.926-54.339 11.883-51.311 13.103-48.284 14.318-45.449 15.765-42.803 17.435H-42.594V1.983Z" fill="#383838"/>
<path transform="matrix(1,0,0,-1,607.6436,753.5742)" d="M0 0C0 .974-.053 1.983-.156 3.027-.261 4.071-.47 5.063-.783 6.003-1.097 6.942-1.55 7.794-2.141 8.561-2.732 9.326-3.515 9.952-4.489 10.44V10.544H13.885V-62.534H0Z" fill="#022897"/>
<path transform="matrix(1,0,0,-1,661.4072,763.4912)" d="M0 0C2.018 1.6 4.105 2.766 6.264 3.496 8.42 4.228 10.474 4.593 12.423 4.593 15.346 4.593 17.781 3.758 19.73 2.088 21.679 .417 22.654-2.089 22.654-5.43V-43.117C22.654-44.301 22.931-45.152 23.489-45.675 24.046-46.196 24.706-46.457 25.473-46.457 26.377-46.457 27.334-46.145 28.344-45.519 29.352-44.892 30.205-44.092 30.901-43.117V-43.222C29.926-46.494 28.239-48.929 25.838-50.529 23.437-52.131 21.018-52.931 18.582-52.931 16.077-52.931 13.885-52.131 12.006-50.529 10.126-48.929 9.187-46.457 9.187-43.117V-12.006C9.187-8.874 8.629-6.578 7.517-5.116 6.402-3.654 4.87-2.925 2.923-2.925 0-2.925-3.411-4.386-7.308-7.309L-14.721-12.842V-52.931H-14.825C-15.939-52.791-17.035-52.669-18.113-52.565-19.193-52.46-20.289-52.408-21.401-52.408-22.516-52.408-23.612-52.46-24.69-52.565-25.771-52.669-26.901-52.791-28.084-52.931H-28.187V-13.259C-28.187-11.312-28.448-9.345-28.971-7.361-29.492-5.377-30.729-3.899-32.677-2.925V-2.819C-29.545-2.055-26.465-1.062-23.437 .155-20.41 1.373-17.575 2.817-14.93 4.488H-14.721V-11.276Z" fill="#022897"/>
<path transform="matrix(1,0,0,-1,712.04,748.5635)" d="M0 0V-11.17H5.951V-12.423H0V-58.045C0-59.229 .277-60.08 .835-60.603 1.392-61.124 2.052-61.385 2.818-61.385 3.722-61.385 4.68-61.072 5.689-60.446 6.698-59.819 7.551-59.02 8.248-58.045V-58.149C7.272-61.422 5.585-63.856 3.184-65.457 .783-67.059-1.67-67.858-4.176-67.858-6.613-67.858-8.77-67.059-10.648-65.457-12.527-63.856-13.468-61.385-13.468-58.045V-18.374C-13.468-16.355-13.885-14.86-14.721-13.884-15.556-12.91-16.636-12.423-17.957-12.423V-11.17C-16.356-10.822-14.687-10.249-12.945-9.447-11.206-8.648-9.519-7.743-7.882-6.733-6.248-5.725-4.75-4.629-3.393-3.444-2.036-2.262-.976-1.114-.209 0Z" fill="#022897"/>
<path transform="matrix(1,0,0,-1,759.542,778.2119)" d="M0 0C-.626 5.567-1.827 9.952-3.602 13.154-5.376 16.354-7.762 17.956-10.753 17.956-13.12 17.956-15.208 16.947-17.017 14.929-18.827 12.909-20.289 10.317-21.401 7.151-22.516 3.982-23.212 .47-23.489-3.394-23.768-7.256-23.56-11.066-22.862-14.825ZM-8.039-38.419C-14.581-38.419-20.028-37.01-24.377-34.19-28.727-31.372-31.997-27.822-34.19-23.542-36.382-19.262-37.497-14.651-37.531-9.709-37.567-4.769-36.539-.156-34.451 4.123-32.363 8.403-29.215 11.953-25.004 14.772-20.793 17.591-15.521 19-9.187 19-6.055 19-3.202 18.635-.626 17.904 1.948 17.173 4.158 16.216 6.003 15.033 7.846 13.849 9.222 12.457 10.127 10.857 11.03 9.256 11.38 7.585 11.171 5.847L-22.55-16.077C-21.994-18.583-21.192-20.95-20.148-23.177-19.104-25.404-17.783-27.37-16.182-29.075-14.581-30.781-12.702-32.139-10.544-33.146-8.388-34.156-5.951-34.696-3.236-34.765-.313-34.905 2.593-34.417 5.48-33.303 8.368-32.19 11.205-30.415 13.989-27.979L14.721-28.604C11.866-31.877 8.438-34.33 4.437-35.966 .435-37.601-3.725-38.419-8.039-38.419" fill="#022897"/>
<path transform="matrix(1,0,0,-1,802.1367,764.43167)" d="M0 0C1.392 1.809 3.08 3.167 5.063 4.072 7.047 4.976 9.083 5.429 11.171 5.429 12.632 5.429 14.059 5.201 15.451 4.75 16.843 4.296 18.061 3.654 19.104 2.819 20.148 1.984 21 .94 21.663-.313 22.323-1.566 22.654-3.028 22.654-4.698 20.287-4.907 17.92-5.585 15.555-6.733 13.188-7.882 11.101-9.396 9.291-11.274H9.188C9.188-8.77 8.733-6.873 7.83-5.585 6.925-4.298 5.672-3.654 4.071-3.654 2.47-3.654 .694-4.316-1.253-5.638-3.202-6.96-5.255-9.048-7.412-11.901V-51.99H-7.517C-8.631-51.851-9.727-51.729-10.806-51.625-11.885-51.52-12.981-51.468-14.094-51.468-15.208-51.468-16.304-51.52-17.383-51.625-18.462-51.729-19.593-51.851-20.775-51.99H-20.879V-12.318C-20.879-10.371-21.141-8.404-21.662-6.421-22.185-4.437-23.421-2.959-25.368-1.984V-1.879C-22.236-1.114-19.157-.122-16.129 1.096-13.102 2.313-10.268 3.758-7.62 5.429H-7.412V-10.127Z" fill="#022897"/>
<path transform="matrix(1,0,0,-1,827.0879,750.3379)" d="M0 0C0 1.183 .242 2.227 .729 3.132 1.216 4.035 1.843 4.784 2.609 5.377 3.374 5.967 4.244 6.402 5.22 6.682 6.193 6.959 7.202 7.099 8.246 7.099 10.334 7.099 12.229 6.524 13.937 5.377 15.641 4.228 16.494 2.436 16.494 0 16.494-2.229 15.779-4.228 14.354-6.003 12.927-7.778 11.343-9.327 9.604-10.648 7.863-11.971 6.297-13.015 4.905-13.781 3.513-14.548 2.853-15.034 2.923-15.242 5.566-14.478 8.143-13.556 10.647-12.476 13.153-11.397 15.519-10.127 17.747-8.665H17.955V-66.084H17.852C16.736-65.944 15.641-65.822 14.563-65.719 13.482-65.613 12.387-65.562 11.274-65.562 10.16-65.562 9.064-65.613 7.985-65.719 6.905-65.822 5.81-65.944 4.697-66.084H4.488V-26.412C4.488-24.465 4.228-22.498 3.705-20.515 3.184-18.53 1.947-17.053 0-16.078V-15.973C1.67-15.138 2.609-14.182 2.817-13.102 3.026-12.024 2.923-10.823 2.505-9.5 2.088-8.179 1.565-6.734 .938-5.168 .312-3.602 0-1.879 0 0" fill="#022897"/>
<path transform="matrix(1,0,0,-1,895.1553,787.9209)" d="M0 0C0 4.176-.297 7.95-.889 11.326-1.479 14.702-2.367 17.591-3.55 19.992-4.734 22.394-6.212 24.254-7.987 25.577-9.762 26.898-11.867 27.562-14.303 27.562-16.67 27.562-18.758 26.898-20.567 25.577-22.378 24.254-23.855 22.394-25.004 19.992-26.151 17.591-27.023 14.702-27.613 11.326-28.206 7.95-28.501 4.176-28.501 0-28.501-4.107-28.276-7.866-27.822-11.275-27.371-14.687-26.605-17.591-25.525-19.993-24.447-22.394-22.986-24.257-21.141-25.578-19.298-26.901-17.017-27.562-14.303-27.562-11.52-27.562-9.205-26.901-7.36-25.578-5.517-24.257-4.056-22.394-2.977-19.993-1.897-17.591-1.133-14.687-.68-11.275-.228-7.866 0-4.107 0 0M-42.699 0C-42.699 3.967-42.021 7.673-40.663 11.118-39.307 14.563-37.393 17.591-34.922 20.2-32.452 22.811-29.459 24.862-25.943 26.36-22.43 27.855-18.549 28.605-14.303 28.605-9.988 28.605-6.073 27.855-2.559 26.36 .955 24.862 3.948 22.811 6.42 20.2 8.89 17.591 10.805 14.563 12.161 11.118 13.52 7.673 14.197 3.967 14.197 0 14.197-3.967 13.52-7.673 12.161-11.119 10.805-14.563 8.89-17.591 6.42-20.201 3.948-22.811 .955-24.865-2.559-26.36-6.073-27.858-9.988-28.605-14.303-28.605-18.549-28.605-22.43-27.858-25.943-26.36-29.459-24.865-32.452-22.811-34.922-20.201-37.393-17.591-39.307-14.563-40.663-11.119-42.021-7.673-42.699-3.967-42.699 0" fill="#022897"/>
<path transform="matrix(1,0,0,-1,939.1045,764.43167)" d="M0 0C1.392 1.809 3.08 3.167 5.063 4.072 7.047 4.976 9.083 5.429 11.171 5.429 12.632 5.429 14.059 5.201 15.451 4.75 16.843 4.296 18.061 3.654 19.105 2.819 20.149 1.984 21 .94 21.663-.313 22.323-1.566 22.655-3.028 22.655-4.698 20.288-4.907 17.92-5.585 15.555-6.733 13.188-7.882 11.101-9.396 9.291-11.274H9.188C9.188-8.77 8.733-6.873 7.83-5.585 6.925-4.298 5.672-3.654 4.071-3.654 2.47-3.654 .694-4.316-1.253-5.638-3.202-6.96-5.255-9.048-7.412-11.901V-51.99H-7.517C-8.631-51.851-9.727-51.729-10.806-51.625-11.885-51.52-12.981-51.468-14.093-51.468-15.208-51.468-16.304-51.52-17.382-51.625-18.462-51.729-19.593-51.851-20.775-51.99H-20.879V-12.318C-20.879-10.371-21.14-8.404-21.662-6.421-22.184-4.437-23.421-2.959-25.368-1.984V-1.879C-22.236-1.114-19.157-.122-16.129 1.096-13.102 2.313-10.267 3.758-7.62 5.429H-7.412V-10.127Z" fill="#022897"/>
<path transform="matrix(1,0,0,-1,296.3911,829.4541)" d="M0 0C0 .205-.011 .418-.033 .639-.055 .858-.099 1.067-.165 1.266-.231 1.463-.326 1.643-.451 1.805-.576 1.966-.741 2.098-.946 2.2V2.223H10.054V-1.166H10.032C9.841-.872 9.596-.546 9.295-.187 8.995 .173 8.617 .51 8.162 .825 7.708 1.141 7.157 1.404 6.512 1.617 5.867 1.83 5.089 1.937 4.18 1.937H2.926V-6.578C3.63-6.578 4.312-6.395 4.972-6.027 5.632-5.661 6.16-5.178 6.556-4.576H6.578V-8.866H6.556C6.16-8.265 5.632-7.78 4.972-7.414 4.312-7.047 3.63-6.863 2.926-6.863V-13.178H0Z" fill="#383838"/>
<path transform="matrix(1,0,0,-1,310.6689,835.24026)" d="M0 0C.293 .265 .624 .474 .99 .627 1.356 .781 1.752 .858 2.178 .858 2.706 .858 3.245 .727 3.795 .462 4.345 .198 4.862-.241 5.346-.857L2.75 5.786C2.691 5.918 2.636 6.051 2.585 6.183 2.534 6.314 2.471 6.438 2.398 6.557ZM-2.948-7.392 2.156 6.931C2.009 7.15 1.837 7.352 1.639 7.535 1.441 7.719 1.217 7.869 .968 7.986V8.009H4.84L10.824-7.392H7.92L6.094-2.75H6.072C5.559-1.605 4.943-.763 4.224-.22 3.505 .323 2.794 .595 2.09 .595 1.533 .595 1.023 .426 .561 .089 .099-.249-.234-.748-.44-1.407-.704-2.199-.839-2.926-.847-3.586-.854-4.245-.781-4.828-.627-5.335-.473-5.841-.264-6.263 0-6.6 .264-6.937 .536-7.193 .814-7.369V-7.392Z" fill="#383838"/>
<path transform="matrix(1,0,0,-1,325.7388,829.4541)" d="M0 0C0 .205-.011 .418-.033 .639-.055 .858-.099 1.067-.165 1.266-.231 1.463-.326 1.643-.451 1.805-.576 1.966-.741 2.098-.946 2.2V2.223H2.926V-12.892H4.818C5.728-12.892 6.505-12.785 7.15-12.572 7.795-12.36 8.345-12.097 8.8-11.78 9.255-11.466 9.628-11.128 9.922-10.769 10.215-10.409 10.458-10.083 10.648-9.79H10.692V-13.178H0Z" fill="#383838"/>
<path transform="matrix(1,0,0,-1,346.5728,842.4121)" d="M0 0C.264 0 .524 .052 .781 .154 1.038 .257 1.272 .407 1.485 .605 1.697 .804 1.87 1.045 2.002 1.331 2.134 1.617 2.2 1.951 2.2 2.332 2.2 3.021 1.987 3.611 1.562 4.104 1.137 4.595 .605 5.053-.033 5.479-.671 5.903-1.36 6.314-2.101 6.71-2.842 7.106-3.531 7.543-4.169 8.02-4.807 8.496-5.339 9.042-5.764 9.658-6.189 10.274-6.402 11.008-6.402 11.858-6.402 12.415-6.27 12.903-6.006 13.321-5.742 13.739-5.375 14.091-4.906 14.377-4.437 14.663-3.879 14.876-3.234 15.016-2.589 15.154-1.892 15.225-1.144 15.225-.162 15.225 .667 15.11 1.342 14.883 2.017 14.655 2.563 14.355 2.981 13.981 3.399 13.607 3.7 13.175 3.883 12.684 4.066 12.191 4.158 11.683 4.158 11.154 3.527 11.081 3 10.945 2.574 10.747 2.148 10.549 1.73 10.223 1.32 9.769L1.276 9.79C1.276 10.333 1.243 10.908 1.177 11.518 1.111 12.126 .986 12.684 .803 13.189 .62 13.695 .359 14.117 .022 14.454-.315 14.791-.748 14.96-1.276 14.96-1.569 14.96-1.852 14.905-2.123 14.795-2.395 14.686-2.633 14.531-2.838 14.333-3.043 14.136-3.208 13.896-3.333 13.618-3.458 13.34-3.52 13.039-3.52 12.716-3.52 11.953-3.311 11.29-2.893 10.726-2.475 10.16-1.951 9.64-1.32 9.163-.689 8.687-.011 8.243 .715 7.832 1.441 7.422 2.119 6.988 2.75 6.534 3.38 6.079 3.905 5.588 4.323 5.061 4.741 4.532 4.95 3.916 4.95 3.212 4.95 2.772 4.854 2.347 4.664 1.937 4.473 1.525 4.166 1.155 3.74 .825 3.314 .495 2.765 .231 2.09 .033 1.416-.165 .601-.264-.352-.264-1.364-.264-2.263-.15-3.047 .077-3.832 .305-4.496 .605-5.038 .979-5.581 1.354-5.992 1.786-6.27 2.277-6.549 2.769-6.688 3.278-6.688 3.807-6.131 3.88-5.625 3.993-5.17 4.147-4.715 4.302-4.283 4.649-3.872 5.192L-3.828 5.17C-3.828 4.628-3.755 4.052-3.608 3.443-3.461 2.835-3.234 2.277-2.926 1.771-2.618 1.266-2.222 .844-1.738 .506-1.254 .169-.675 0 0 0" fill="#383838"/>
<path transform="matrix(1,0,0,-1,356.2305,829.4541)" d="M0 0C0 .205-.011 .418-.033 .639-.055 .858-.099 1.067-.165 1.266-.231 1.463-.326 1.643-.451 1.805-.576 1.966-.741 2.098-.946 2.2V2.223H10.054V-1.166H10.032C9.841-.872 9.596-.546 9.295-.187 8.995 .173 8.617 .51 8.162 .825 7.708 1.141 7.157 1.404 6.512 1.617 5.867 1.83 5.089 1.937 4.18 1.937H2.926V-5.191C3.63-5.191 4.312-5.009 4.972-4.642 5.632-4.275 6.16-3.791 6.556-3.189H6.578V-7.479H6.556C6.16-6.879 5.632-6.395 4.972-6.027 4.312-5.661 3.63-5.478 2.926-5.478V-12.892H4.18C5.089-12.892 5.867-12.785 6.512-12.572 7.157-12.36 7.708-12.097 8.162-11.78 8.617-11.466 8.995-11.128 9.295-10.769 9.596-10.409 9.841-10.083 10.032-9.79H10.054V-13.178H0Z" fill="#383838"/>
<path transform="matrix(1,0,0,-1,386.4585,842.6758)" d="M0 0C-1.203 0-2.259 .224-3.168 .671-4.078 1.118-4.833 1.705-5.434 2.431-6.036 3.157-6.487 3.982-6.787 4.906-7.088 5.83-7.238 6.776-7.238 7.744-7.238 8.712-7.088 9.661-6.787 10.593-6.487 11.524-6.032 12.353-5.423 13.079-4.815 13.805-4.059 14.388-3.157 14.828-2.255 15.268-1.203 15.488 0 15.488 1.056 15.488 1.969 15.363 2.739 15.114 3.509 14.864 4.143 14.534 4.642 14.124 5.14 13.713 5.507 13.247 5.742 12.727 5.976 12.206 6.094 11.682 6.094 11.154 5.522 11.154 4.983 11.033 4.477 10.791 3.971 10.549 3.571 10.259 3.278 9.922H3.234C3.234 10.465 3.175 11.048 3.058 11.671 2.94 12.294 2.753 12.87 2.497 13.397 2.24 13.926 1.91 14.362 1.507 14.707 1.103 15.052 .616 15.224 .044 15.224-.558 15.224-1.1 15.022-1.584 14.619-2.068 14.216-2.479 13.684-2.816 13.024-3.154 12.364-3.414 11.612-3.597 10.769-3.781 9.926-3.872 9.061-3.872 8.173-3.872 7.285-3.773 6.416-3.575 5.566-3.377 4.715-3.069 3.952-2.651 3.278-2.233 2.604-1.694 2.053-1.034 1.628-.374 1.202 .41 .976 1.32 .946 2.097 .916 2.878 1.052 3.663 1.353 4.447 1.653 5.214 2.134 5.962 2.794L6.16 2.618C5.397 1.738 4.469 1.081 3.377 .649 2.284 .216 1.158 0 0 0" fill="#383838"/>
<path transform="matrix(1,0,0,-1,397.1938,829.4541)" d="M0 0C0 .205-.011 .418-.033 .639-.055 .858-.099 1.067-.165 1.266-.231 1.463-.326 1.643-.451 1.805-.576 1.966-.741 2.098-.946 2.2V2.223H10.054V-1.166H10.032C9.841-.872 9.596-.546 9.295-.187 8.995 .173 8.617 .51 8.162 .825 7.708 1.141 7.157 1.404 6.512 1.617 5.867 1.83 5.089 1.937 4.18 1.937H2.926V-5.191C3.63-5.191 4.312-5.009 4.972-4.642 5.632-4.275 6.16-3.791 6.556-3.189H6.578V-7.479H6.556C6.16-6.879 5.632-6.395 4.972-6.027 4.312-5.661 3.63-5.478 2.926-5.478V-12.892H4.18C5.089-12.892 5.867-12.785 6.512-12.572 7.157-12.36 7.708-12.097 8.162-11.78 8.617-11.466 8.995-11.128 9.295-10.769 9.596-10.409 9.841-10.083 10.032-9.79H10.054V-13.178H0Z" fill="#383838"/>
<path transform="matrix(1,0,0,-1,412.0439,829.4541)" d="M0 0C0 .205-.011 .418-.033 .639-.055 .858-.099 1.067-.165 1.266-.231 1.463-.326 1.643-.451 1.805-.576 1.966-.741 2.098-.946 2.2V2.223H2.926V-13.178H0Z" fill="#383838"/>
<path transform="matrix(1,0,0,-1,420.3594,829.4541)" d="M0 0C0 .205-.011 .418-.033 .639-.055 .858-.099 1.067-.165 1.266-.231 1.463-.326 1.643-.451 1.805-.576 1.966-.741 2.098-.946 2.2V2.223H2.926V-12.892H4.818C5.728-12.892 6.505-12.785 7.15-12.572 7.795-12.36 8.345-12.097 8.8-11.78 9.255-11.466 9.628-11.128 9.922-10.769 10.215-10.409 10.458-10.083 10.648-9.79H10.692V-13.178H0Z" fill="#383838"/>
<path transform="matrix(1,0,0,-1,435.4072,829.4541)" d="M0 0C0 .205-.011 .418-.033 .639-.055 .858-.099 1.067-.165 1.266-.231 1.463-.326 1.643-.451 1.805-.576 1.966-.741 2.098-.946 2.2V2.223H2.926V-13.178H0Z" fill="#383838"/>
<path transform="matrix(1,0,0,-1,443.7231,829.4541)" d="M0 0C0 .205-.011 .418-.033 .639-.055 .858-.099 1.067-.165 1.266-.231 1.463-.326 1.643-.451 1.805-.576 1.966-.741 2.098-.946 2.2V2.223H2.53L10.582-11.571V-3.762C10.582-2.97 10.476-2.244 10.263-1.584 10.05-.924 9.787-.341 9.471 .165 9.156 .671 8.808 1.093 8.426 1.431 8.044 1.768 7.686 2.024 7.348 2.2V2.223H10.89V-10.956C10.89-11.161 10.901-11.374 10.923-11.594 10.945-11.813 10.989-12.022 11.055-12.221 11.121-12.419 11.216-12.599 11.341-12.76 11.466-12.921 11.631-13.054 11.836-13.155V-13.178H8.448L.308 .66V-7.193C.308-7.985 .415-8.712 .627-9.372 .84-10.031 1.104-10.614 1.419-11.121 1.734-11.627 2.083-12.049 2.464-12.386 2.845-12.724 3.205-12.979 3.542-13.155V-13.178H0Z" fill="#383838"/>
<path transform="matrix(1,0,0,-1,466.625,842.6758)" d="M0 0C-1.203 0-2.255 .224-3.157 .671-4.059 1.118-4.815 1.705-5.423 2.431-6.032 3.157-6.487 3.982-6.787 4.906-7.088 5.83-7.238 6.776-7.238 7.744-7.238 8.712-7.088 9.661-6.787 10.593-6.487 11.524-6.036 12.353-5.434 13.079-4.833 13.805-4.078 14.388-3.168 14.828-2.259 15.268-1.203 15.488 0 15.488 1.056 15.488 1.969 15.363 2.739 15.114 3.509 14.864 4.143 14.534 4.642 14.124 5.14 13.713 5.507 13.247 5.742 12.727 5.976 12.206 6.094 11.682 6.094 11.154 5.522 11.154 4.983 11.033 4.477 10.791 3.971 10.549 3.571 10.259 3.278 9.922H3.234C3.234 10.465 3.175 11.048 3.058 11.671 2.94 12.294 2.75 12.87 2.486 13.397 2.222 13.926 1.888 14.362 1.485 14.707 1.081 15.052 .594 15.224 .022 15.224-.609 15.224-1.174 15.008-1.672 14.575-2.171 14.143-2.589 13.57-2.926 12.859-3.264 12.147-3.517 11.341-3.685 10.438-3.854 9.537-3.916 8.624-3.872 7.7-3.828 6.864-3.7 6.024-3.487 5.181-3.275 4.337-2.959 3.575-2.541 2.893-2.123 2.211-1.603 1.653-.979 1.221-.356 .788 .381 .558 1.232 .528 1.613 .513 1.965 .539 2.288 .604 2.61 .671 2.933 .733 3.256 .792V4.708C3.256 5.118 3.197 5.533 3.08 5.951 2.962 6.369 2.706 6.681 2.31 6.886V6.908H6.16V.044H5.852C5.529 .264 5.228 .414 4.95 .495 4.671 .575 4.392 .616 4.114 .616 3.835 .616 3.549 .583 3.256 .517 2.962 .451 2.651 .381 2.321 .308 1.991 .234 1.639 .165 1.265 .099 .891 .033 .469 0 0 0" fill="#383838"/>
<path transform="matrix(1,0,0,-1,487.4805,842.63186)" d="M0 0C-.337 0-.62 .099-.847 .297-1.075 .495-1.188 .74-1.188 1.034-1.188 1.327-1.075 1.573-.847 1.771-.62 1.969-.337 2.068 0 2.068 .322 2.068 .601 1.969 .836 1.771 1.07 1.573 1.188 1.327 1.188 1.034 1.188 .74 1.07 .495 .836 .297 .601 .099 .322 0 0 0M0 2.64C-.337 2.64-.62 2.739-.847 2.937-1.075 3.135-1.188 3.381-1.188 3.674-1.188 3.967-1.075 4.213-.847 4.411-.62 4.609-.337 4.708 0 4.708 .322 4.708 .601 4.609 .836 4.411 1.07 4.213 1.188 3.967 1.188 3.674 1.188 3.381 1.07 3.135 .836 2.937 .601 2.739 .322 2.64 0 2.64" fill="#383838"/>
<path transform="matrix(1,0,0,-1,506.686,827.5176)" d="M0 0C-.748 0-1.404-.106-1.969-.319-2.534-.532-3.021-.796-3.432-1.111-3.843-1.427-4.191-1.764-4.477-2.123-4.763-2.482-5.008-2.809-5.214-3.103H-5.236V.286H8.162V-3.103H8.14C7.949-2.809 7.708-2.482 7.414-2.123 7.121-1.764 6.769-1.427 6.358-1.111 5.947-.796 5.459-.532 4.895-.319 4.331-.106 3.674 0 2.926 0V-15.114H0Z" fill="#383838"/>
<path transform="matrix(1,0,0,-1,519.2041,829.4541)" d="M0 0C0 .205-.011 .418-.033 .639-.055 .858-.099 1.067-.165 1.266-.231 1.463-.326 1.643-.451 1.805-.576 1.966-.741 2.098-.946 2.2V2.223H2.926V-5.368H9.416V0C9.416 .205 9.405 .418 9.383 .639 9.361 .858 9.317 1.067 9.251 1.266 9.185 1.463 9.09 1.643 8.965 1.805 8.84 1.966 8.675 2.098 8.47 2.2V2.223H12.342V-13.178H9.416V-5.653H2.926V-13.178H0Z" fill="#383838"/>
<path transform="matrix(1,0,0,-1,536.936,829.4541)" d="M0 0C0 .205-.011 .418-.033 .639-.055 .858-.099 1.067-.165 1.266-.231 1.463-.326 1.643-.451 1.805-.576 1.966-.741 2.098-.946 2.2V2.223H10.054V-1.166H10.032C9.841-.872 9.596-.546 9.295-.187 8.995 .173 8.617 .51 8.162 .825 7.708 1.141 7.157 1.404 6.512 1.617 5.867 1.83 5.089 1.937 4.18 1.937H2.926V-5.191C3.63-5.191 4.312-5.009 4.972-4.642 5.632-4.275 6.16-3.791 6.556-3.189H6.578V-7.479H6.556C6.16-6.879 5.632-6.395 4.972-6.027 4.312-5.661 3.63-5.478 2.926-5.478V-12.892H4.18C5.089-12.892 5.867-12.785 6.512-12.572 7.157-12.36 7.708-12.097 8.162-11.78 8.617-11.466 8.995-11.128 9.295-10.769 9.596-10.409 9.841-10.083 10.032-9.79H10.054V-13.178H0Z" fill="#383838"/>
<path transform="matrix(1,0,0,-1,560.7832,829.4541)" d="M0 0C0 .205-.011 .418-.033 .639-.055 .858-.099 1.067-.165 1.266-.231 1.463-.326 1.643-.451 1.805-.576 1.966-.741 2.098-.946 2.2V2.223H2.926V-8.954L7.106-2.926C7.664-2.134 8.016-1.455 8.162-.891 8.309-.326 8.342 .157 8.261 .562 8.181 .965 8.019 1.295 7.777 1.551 7.535 1.808 7.304 2.024 7.084 2.2V2.223H11.022L3.828-8.162C4.18-7.824 4.558-7.579 4.961-7.425 5.364-7.271 5.764-7.193 6.16-7.193 6.659-7.193 7.128-7.308 7.568-7.535 8.008-7.763 8.36-8.074 8.624-8.47L10.252-10.956C10.531-11.381 10.861-11.803 11.242-12.221 11.624-12.639 12.085-12.95 12.628-13.155V-13.178H8.47L6.05-9.438C5.83-9.086 5.584-8.833 5.313-8.679 5.042-8.524 4.767-8.447 4.488-8.447 4.224-8.447 3.971-8.514 3.729-8.646 3.487-8.777 3.286-8.961 3.124-9.195L2.926-9.481V-13.178H0Z" fill="#383838"/>
<path transform="matrix(1,0,0,-1,577.3931,829.4541)" d="M0 0C0 .205-.011 .418-.033 .639-.055 .858-.099 1.067-.165 1.266-.231 1.463-.326 1.643-.451 1.805-.576 1.966-.741 2.098-.946 2.2V2.223H10.054V-1.166H10.032C9.841-.872 9.596-.546 9.295-.187 8.995 .173 8.617 .51 8.162 .825 7.708 1.141 7.157 1.404 6.512 1.617 5.867 1.83 5.089 1.937 4.18 1.937H2.926V-5.191C3.63-5.191 4.312-5.009 4.972-4.642 5.632-4.275 6.16-3.791 6.556-3.189H6.578V-7.479H6.556C6.16-6.879 5.632-6.395 4.972-6.027 4.312-5.661 3.63-5.478 2.926-5.478V-12.892H4.18C5.089-12.892 5.867-12.785 6.512-12.572 7.157-12.36 7.708-12.097 8.162-11.78 8.617-11.466 8.995-11.128 9.295-10.769 9.596-10.409 9.841-10.083 10.032-9.79H10.054V-13.178H0Z" fill="#383838"/>
<path transform="matrix(1,0,0,-1,596.1807,842.63186)" d="M0 0V4.488L-5.434 15.4H-2.508L2.728 4.862 5.06 9.416C5.441 10.164 5.69 10.864 5.808 11.517 5.925 12.17 5.951 12.752 5.885 13.266 5.819 13.779 5.684 14.216 5.478 14.575 5.272 14.935 5.023 15.202 4.73 15.378L4.752 15.4H8.492L2.904 4.488V0Z" fill="#383838"/>
<path transform="matrix(1,0,0,-1,621.7881,827.5176)" d="M0 0C-.747 0-1.404-.106-1.969-.319-2.533-.532-3.021-.796-3.432-1.111-3.843-1.427-4.19-1.764-4.477-2.123-4.763-2.482-5.008-2.809-5.214-3.103H-5.235V.286H8.162V-3.103H8.141C7.949-2.809 7.708-2.482 7.414-2.123 7.121-1.764 6.769-1.427 6.358-1.111 5.947-.796 5.46-.532 4.896-.319 4.331-.106 3.675 0 2.927 0V-15.114H0Z" fill="#383838"/>
<path transform="matrix(1,0,0,-1,640.708,827.4521)" d="M0 0C-.616 0-1.162-.18-1.639-.539-2.115-.898-2.519-1.404-2.849-2.057-3.179-2.709-3.429-3.494-3.597-4.411-3.766-5.327-3.85-6.351-3.85-7.479-3.85-8.595-3.78-9.613-3.641-10.538-3.502-11.462-3.281-12.25-2.98-12.902-2.681-13.556-2.284-14.062-1.793-14.421-1.302-14.78-.704-14.96 0-14.96 .704-14.96 1.302-14.78 1.793-14.421 2.284-14.062 2.681-13.556 2.981-12.902 3.281-12.25 3.502-11.462 3.641-10.538 3.78-9.613 3.851-8.595 3.851-7.479 3.851-6.351 3.766-5.327 3.597-4.411 3.429-3.494 3.179-2.709 2.849-2.057 2.52-1.404 2.115-.898 1.639-.539 1.162-.18 .616 0 0 0M0-15.224C-1.158-15.224-2.188-15.022-3.091-14.619-3.993-14.216-4.752-13.662-5.368-12.958-5.984-12.254-6.449-11.433-6.765-10.494-7.08-9.556-7.238-8.551-7.238-7.479-7.238-6.409-7.08-5.404-6.765-4.466-6.449-3.527-5.984-2.706-5.368-2.002-4.752-1.298-3.993-.744-3.091-.341-2.188 .062-1.158 .265 0 .265 1.173 .265 2.207 .062 3.103-.341 3.996-.744 4.752-1.298 5.368-2.002 5.984-2.706 6.449-3.527 6.765-4.466 7.08-5.404 7.238-6.409 7.238-7.479 7.238-8.551 7.08-9.556 6.765-10.494 6.449-11.433 5.984-12.254 5.368-12.958 4.752-13.662 3.996-14.216 3.103-14.619 2.207-15.022 1.173-15.224 0-15.224" fill="#383838"/>
<path transform="matrix(1,0,0,-1,663.3232,835.24026)" d="M0 0C.294 .265 .624 .474 .99 .627 1.356 .781 1.753 .858 2.179 .858 2.706 .858 3.245 .727 3.796 .462 4.346 .198 4.862-.241 5.347-.857L2.75 5.786C2.691 5.918 2.637 6.051 2.585 6.183 2.534 6.314 2.472 6.438 2.398 6.557ZM-2.947-7.392 2.156 6.931C2.01 7.15 1.838 7.352 1.64 7.535 1.441 7.719 1.218 7.869 .969 7.986V8.009H4.841L10.824-7.392H7.921L6.095-2.75H6.072C5.559-1.605 4.943-.763 4.225-.22 3.506 .323 2.795 .595 2.091 .595 1.533 .595 1.023 .426 .562 .089 .1-.249-.234-.748-.439-1.407-.703-2.199-.839-2.926-.847-3.586-.854-4.245-.78-4.828-.627-5.335-.473-5.841-.264-6.263 0-6.6 .265-6.937 .536-7.193 .814-7.369V-7.392Z" fill="#383838"/>
<path transform="matrix(1,0,0,-1,693.1777,842.4121)" d="M0 0C.264 0 .524 .052 .781 .154 1.037 .257 1.272 .407 1.485 .605 1.697 .804 1.87 1.045 2.002 1.331 2.134 1.617 2.2 1.951 2.2 2.332 2.2 3.021 1.987 3.611 1.562 4.104 1.137 4.595 .605 5.053-.033 5.479-.671 5.903-1.36 6.314-2.101 6.71-2.842 7.106-3.531 7.543-4.169 8.02-4.807 8.496-5.339 9.042-5.764 9.658-6.189 10.274-6.402 11.008-6.402 11.858-6.402 12.415-6.27 12.903-6.006 13.321-5.742 13.739-5.376 14.091-4.906 14.377-4.437 14.663-3.88 14.876-3.234 15.016-2.589 15.154-1.892 15.225-1.144 15.225-.161 15.225 .667 15.11 1.342 14.883 2.017 14.655 2.563 14.355 2.981 13.981 3.399 13.607 3.699 13.175 3.883 12.684 4.066 12.191 4.158 11.683 4.158 11.154 3.527 11.081 2.999 10.945 2.574 10.747 2.148 10.549 1.73 10.223 1.32 9.769L1.276 9.79C1.276 10.333 1.243 10.908 1.177 11.518 1.111 12.126 .986 12.684 .803 13.189 .619 13.695 .359 14.117 .022 14.454-.315 14.791-.748 14.96-1.276 14.96-1.569 14.96-1.852 14.905-2.123 14.795-2.395 14.686-2.633 14.531-2.838 14.333-3.044 14.136-3.208 13.896-3.333 13.618-3.458 13.34-3.52 13.039-3.52 12.716-3.52 11.953-3.311 11.29-2.893 10.726-2.475 10.16-1.951 9.64-1.32 9.163-.689 8.687-.011 8.243 .715 7.832 1.441 7.422 2.119 6.988 2.75 6.534 3.381 6.079 3.905 5.588 4.323 5.061 4.741 4.532 4.95 3.916 4.95 3.212 4.95 2.772 4.854 2.347 4.664 1.937 4.474 1.525 4.165 1.155 3.74 .825 3.314 .495 2.765 .231 2.09 .033 1.415-.165 .602-.264-.352-.264-1.364-.264-2.263-.15-3.047 .077-3.832 .305-4.495 .605-5.038 .979-5.581 1.354-5.991 1.786-6.27 2.277-6.549 2.769-6.687 3.278-6.687 3.807-6.131 3.88-5.625 3.993-5.17 4.147-4.716 4.302-4.282 4.649-3.872 5.192L-3.828 5.17C-3.828 4.628-3.755 4.052-3.608 3.443-3.462 2.835-3.234 2.277-2.926 1.771-2.618 1.266-2.222 .844-1.738 .506-1.254 .169-.675 0 0 0" fill="#383838"/>
<path transform="matrix(1,0,0,-1,706.7949,827.5176)" d="M0 0C-.748 0-1.404-.106-1.969-.319-2.533-.532-3.021-.796-3.432-1.111-3.843-1.427-4.19-1.764-4.477-2.123-4.763-2.482-5.009-2.809-5.214-3.103H-5.235V.286H8.162V-3.103H8.141C7.949-2.809 7.707-2.482 7.414-2.123 7.121-1.764 6.769-1.427 6.358-1.111 5.947-.796 5.46-.532 4.896-.319 4.33-.106 3.674 0 2.926 0V-15.114H0Z" fill="#383838"/>
<path transform="matrix(1,0,0,-1,719.2041,829.4541)" d="M0 0C0 .205-.012 .418-.033 .639-.056 .858-.1 1.067-.165 1.266-.231 1.463-.327 1.643-.451 1.805-.576 1.966-.741 2.098-.946 2.2V2.223H2.926V-7.59C2.926-8.294 3.039-8.906 3.267-9.427 3.494-9.947 3.798-10.38 4.18-10.725 4.561-11.069 4.993-11.33 5.478-11.506 5.962-11.682 6.453-11.77 6.951-11.77 7.45-11.77 7.941-11.682 8.426-11.506 8.909-11.33 9.339-11.069 9.713-10.725 10.087-10.38 10.387-9.947 10.614-9.427 10.842-8.906 10.956-8.294 10.956-7.59V-3.762C10.956-2.97 10.853-2.244 10.647-1.584 10.442-.924 10.178-.341 9.855 .165 9.533 .671 9.181 1.093 8.8 1.431 8.418 1.768 8.059 2.024 7.722 2.2V2.223H11.264V-8.162C11.264-8.998 11.102-9.731 10.779-10.361 10.457-10.992 10.031-11.517 9.504-11.935 8.976-12.353 8.378-12.668 7.711-12.881 7.043-13.094 6.357-13.2 5.653-13.2 4.949-13.2 4.257-13.094 3.574-12.881 2.893-12.668 2.287-12.353 1.76-11.935 1.231-11.517 .806-10.992 .483-10.361 .161-9.731 0-8.998 0-8.162Z" fill="#383838"/>
<path transform="matrix(1,0,0,-1,735.7031,829.4541)" d="M0 0C0 .205-.011 .418-.033 .639-.055 .858-.099 1.067-.165 1.266-.23 1.463-.326 1.643-.451 1.805-.575 1.966-.74 2.098-.945 2.2V2.223H2.53L10.582-11.571V-3.762C10.582-2.97 10.476-2.244 10.264-1.584 10.051-.924 9.786-.341 9.472 .165 9.155 .671 8.808 1.093 8.426 1.431 8.045 1.768 7.686 2.024 7.349 2.2V2.223H10.891V-10.956C10.891-11.161 10.901-11.374 10.923-11.594 10.945-11.813 10.989-12.022 11.056-12.221 11.121-12.419 11.217-12.599 11.341-12.76 11.466-12.921 11.631-13.054 11.836-13.155V-13.178H8.448L.309 .66V-7.193C.309-7.985 .414-8.712 .627-9.372 .84-10.031 1.104-10.614 1.419-11.121 1.734-11.627 2.083-12.049 2.464-12.386 2.846-12.724 3.205-12.979 3.542-13.155V-13.178H0Z" fill="#383838"/>
<path transform="matrix(1,0,0,-1,752.0049,829.4541)" d="M0 0C0 .205-.011 .418-.033 .639-.055 .858-.099 1.067-.165 1.266-.23 1.463-.326 1.643-.451 1.805-.575 1.966-.74 2.098-.945 2.2V2.223H2.53L10.582-11.571V-3.762C10.582-2.97 10.476-2.244 10.264-1.584 10.051-.924 9.786-.341 9.472 .165 9.155 .671 8.808 1.093 8.426 1.431 8.045 1.768 7.686 2.024 7.349 2.2V2.223H10.891V-10.956C10.891-11.161 10.901-11.374 10.923-11.594 10.945-11.813 10.989-12.022 11.056-12.221 11.121-12.419 11.217-12.599 11.341-12.76 11.466-12.921 11.631-13.054 11.836-13.155V-13.178H8.448L.309 .66V-7.193C.309-7.985 .414-8.712 .627-9.372 .84-10.031 1.104-10.614 1.419-11.121 1.734-11.627 2.083-12.049 2.464-12.386 2.846-12.724 3.205-12.979 3.542-13.155V-13.178H0Z" fill="#383838"/>
<path transform="matrix(1,0,0,-1,768.3066,829.4541)" d="M0 0C0 .205-.011 .418-.033 .639-.055 .858-.099 1.067-.165 1.266-.23 1.463-.326 1.643-.451 1.805-.575 1.966-.74 2.098-.945 2.2V2.223H2.926V-13.178H0Z" fill="#383838"/>
<path transform="matrix(1,0,0,-1,776.6221,829.4541)" d="M0 0C0 .205-.011 .418-.033 .639-.055 .858-.099 1.067-.165 1.266-.23 1.463-.326 1.643-.451 1.805-.575 1.966-.74 2.098-.945 2.2V2.223H2.53L10.582-11.571V-3.762C10.582-2.97 10.476-2.244 10.264-1.584 10.051-.924 9.786-.341 9.472 .165 9.155 .671 8.808 1.093 8.426 1.431 8.045 1.768 7.686 2.024 7.349 2.2V2.223H10.891V-10.956C10.891-11.161 10.901-11.374 10.923-11.594 10.945-11.813 10.989-12.022 11.056-12.221 11.121-12.419 11.217-12.599 11.341-12.76 11.466-12.921 11.631-13.054 11.836-13.155V-13.178H8.448L.309 .66V-7.193C.309-7.985 .414-8.712 .627-9.372 .84-10.031 1.104-10.614 1.419-11.121 1.734-11.627 2.083-12.049 2.464-12.386 2.846-12.724 3.205-12.979 3.542-13.155V-13.178H0Z" fill="#383838"/>
<path transform="matrix(1,0,0,-1,799.5244,842.6758)" d="M0 0C-1.202 0-2.255 .224-3.156 .671-4.059 1.118-4.814 1.705-5.423 2.431-6.031 3.157-6.486 3.982-6.787 4.906-7.088 5.83-7.237 6.776-7.237 7.744-7.237 8.712-7.088 9.661-6.787 10.593-6.486 11.524-6.035 12.353-5.434 13.079-4.832 13.805-4.077 14.388-3.168 14.828-2.259 15.268-1.202 15.488 0 15.488 1.057 15.488 1.97 15.363 2.739 15.114 3.51 14.864 4.144 14.534 4.643 14.124 5.141 13.713 5.508 13.247 5.742 12.727 5.977 12.206 6.095 11.682 6.095 11.154 5.522 11.154 4.983 11.033 4.478 10.791 3.972 10.549 3.571 10.259 3.278 9.922H3.234C3.234 10.465 3.176 11.048 3.059 11.671 2.94 12.294 2.75 12.87 2.486 13.397 2.223 13.926 1.889 14.362 1.485 14.707 1.082 15.052 .595 15.224 .022 15.224-.608 15.224-1.173 15.008-1.672 14.575-2.171 14.143-2.589 13.57-2.926 12.859-3.264 12.147-3.517 11.341-3.685 10.438-3.854 9.537-3.916 8.624-3.872 7.7-3.828 6.864-3.699 6.024-3.486 5.181-3.274 4.337-2.959 3.575-2.541 2.893-2.123 2.211-1.603 1.653-.979 1.221-.355 .788 .382 .558 1.232 .528 1.613 .513 1.966 .539 2.288 .604 2.61 .671 2.934 .733 3.256 .792V4.708C3.256 5.118 3.197 5.533 3.08 5.951 2.963 6.369 2.706 6.681 2.311 6.886V6.908H6.16V.044H5.853C5.529 .264 5.229 .414 4.95 .495 4.672 .575 4.393 .616 4.114 .616 3.836 .616 3.55 .583 3.256 .517 2.963 .451 2.651 .381 2.321 .308 1.991 .234 1.64 .165 1.266 .099 .892 .033 .47 0 0 0" fill="#383838"/>
<path transform="matrix(1,0,0,-1,819.7637,829.4541)" d="M0 0C0 .205-.011 .418-.033 .639-.055 .858-.099 1.067-.165 1.266-.23 1.463-.326 1.643-.451 1.805-.575 1.966-.74 2.098-.945 2.2V2.223H2.926V-13.178H0Z" fill="#383838"/>
<path transform="matrix(1,0,0,-1,828.0801,829.4541)" d="M0 0C0 .205-.011 .418-.033 .639-.055 .858-.099 1.067-.165 1.266-.23 1.463-.326 1.643-.451 1.805-.575 1.966-.74 2.098-.945 2.2V2.223H2.53L10.582-11.571V-3.762C10.582-2.97 10.476-2.244 10.264-1.584 10.051-.924 9.786-.341 9.472 .165 9.155 .671 8.808 1.093 8.426 1.431 8.045 1.768 7.686 2.024 7.349 2.2V2.223H10.891V-10.956C10.891-11.161 10.901-11.374 10.923-11.594 10.945-11.813 10.989-12.022 11.056-12.221 11.121-12.419 11.217-12.599 11.341-12.76 11.466-12.921 11.631-13.054 11.836-13.155V-13.178H8.448L.309 .66V-7.193C.309-7.985 .414-8.712 .627-9.372 .84-10.031 1.104-10.614 1.419-11.121 1.734-11.627 2.083-12.049 2.464-12.386 2.846-12.724 3.205-12.979 3.542-13.155V-13.178H0Z" fill="#383838"/>
<path transform="matrix(1,0,0,-1,848.5615,827.5176)" d="M0 0C-.748 0-1.404-.106-1.969-.319-2.533-.532-3.021-.796-3.432-1.111-3.843-1.427-4.19-1.764-4.477-2.123-4.763-2.482-5.009-2.809-5.214-3.103H-5.235V.286H8.162V-3.103H8.141C7.949-2.809 7.707-2.482 7.414-2.123 7.121-1.764 6.769-1.427 6.358-1.111 5.947-.796 5.46-.532 4.896-.319 4.33-.106 3.674 0 2.926 0V-15.114H0Z" fill="#383838"/>
<path transform="matrix(1,0,0,-1,861.0791,829.4541)" d="M0 0C0 .205-.011 .418-.033 .639-.055 .858-.099 1.067-.165 1.266-.23 1.463-.326 1.643-.451 1.805-.575 1.966-.74 2.098-.945 2.2V2.223H10.055V-1.166H10.032C9.842-.872 9.596-.546 9.295-.187 8.994 .173 8.616 .51 8.162 .825 7.707 1.141 7.157 1.404 6.512 1.617 5.866 1.83 5.09 1.937 4.181 1.937H2.926V-5.191C3.63-5.191 4.312-5.009 4.973-4.642 5.632-4.275 6.16-3.791 6.557-3.189H6.578V-7.479H6.557C6.16-6.879 5.632-6.395 4.973-6.027 4.312-5.661 3.63-5.478 2.926-5.478V-12.892H4.181C5.09-12.892 5.866-12.785 6.512-12.572 7.157-12.36 7.707-12.097 8.162-11.78 8.616-11.466 8.994-11.128 9.295-10.769 9.596-10.409 9.842-10.083 10.032-9.79H10.055V-13.178H0Z" fill="#383838"/>
<path transform="matrix(1,0,0,-1,878.8545,827.5176)" d="M0 0V-11.902C.146-11.477 .371-11.059 .672-10.648 .972-10.238 1.306-9.813 1.673-9.372 2.039-8.933 2.417-8.481 2.806-8.02 3.194-7.558 3.55-7.069 3.872-6.557 4.195-6.043 4.459-5.504 4.664-4.939 4.87-4.375 4.973-3.77 4.973-3.124 4.973-2.729 4.885-2.343 4.708-1.97 4.532-1.596 4.269-1.262 3.916-.968 3.564-.675 3.132-.44 2.618-.265 2.104-.088 1.511 0 .836 0ZM-2.926-1.937C-2.926-1.731-2.937-1.519-2.959-1.298-2.98-1.078-3.024-.869-3.091-.671-3.156-.474-3.252-.294-3.377-.132-3.501 .029-3.666 .161-3.871 .264V.286H1.475C3.704 .286 5.368-.019 6.469-.627 7.568-1.236 8.118-2.083 8.118-3.168 8.118-3.564 8.038-3.957 7.876-4.346 7.715-4.734 7.439-5.159 7.052-5.621 6.663-6.083 6.149-6.601 5.512-7.172 4.873-7.744 4.07-8.412 3.103-9.174 3.454-9.16 3.828-9.178 4.225-9.229 4.62-9.281 5.013-9.387 5.401-9.548 5.79-9.71 6.164-9.938 6.523-10.23 6.883-10.523 7.194-10.905 7.458-11.374 7.635-11.668 7.821-12.001 8.02-12.375 8.218-12.749 8.438-13.116 8.68-13.476 8.922-13.835 9.186-14.161 9.472-14.454 9.758-14.748 10.076-14.96 10.429-15.092V-15.114H6.271L4.137-11.353C3.931-10.985 3.696-10.645 3.433-10.329 3.168-10.014 2.875-9.775 2.553-9.614 1.849-10.201 1.247-10.766 .748-11.309 .25-11.851 0-12.387 0-12.914V-15.114H-2.926Z" fill="#383838"/>
<path transform="matrix(1,0,0,-1,893.3086,829.4541)" d="M0 0C0 .205-.011 .418-.033 .639-.055 .858-.099 1.067-.165 1.266-.23 1.463-.326 1.643-.451 1.805-.575 1.966-.74 2.098-.945 2.2V2.223H2.926V-13.178H0Z" fill="#383838"/>
<path transform="matrix(1,0,0,-1,908.0264,827.4521)" d="M0 0C-.616 0-1.163-.18-1.639-.539-2.116-.898-2.52-1.404-2.85-2.057-3.179-2.709-3.429-3.494-3.597-4.411-3.766-5.327-3.851-6.351-3.851-7.479-3.851-8.595-3.78-9.613-3.642-10.538-3.502-11.462-3.282-12.25-2.981-12.902-2.681-13.556-2.285-14.062-1.793-14.421-1.302-14.78-.704-14.96 0-14.96 .704-14.96 1.302-14.78 1.793-14.421 2.284-14.062 2.68-13.556 2.98-12.902 3.281-12.25 3.501-11.462 3.641-10.538 3.78-9.613 3.85-8.595 3.85-7.479 3.85-6.351 3.766-5.327 3.597-4.411 3.428-3.494 3.179-2.709 2.849-2.057 2.519-1.404 2.115-.898 1.639-.539 1.162-.18 .616 0 0 0M0-15.224C-1.159-15.224-2.189-15.022-3.091-14.619-3.993-14.216-4.752-13.662-5.368-12.958-5.984-12.254-6.45-11.433-6.766-10.494-7.081-9.556-7.238-8.551-7.238-7.479-7.238-6.409-7.081-5.404-6.766-4.466-6.45-3.527-5.984-2.706-5.368-2.002-4.752-1.298-3.993-.744-3.091-.341-2.189 .062-1.159 .265 0 .265 1.173 .265 2.207 .062 3.102-.341 3.996-.744 4.752-1.298 5.368-2.002 5.983-2.706 6.449-3.527 6.765-4.466 7.08-5.404 7.238-6.409 7.238-7.479 7.238-8.551 7.08-9.556 6.765-10.494 6.449-11.433 5.983-12.254 5.368-12.958 4.752-13.662 3.996-14.216 3.102-14.619 2.207-15.022 1.173-15.224 0-15.224" fill="#383838"/>
<path transform="matrix(1,0,0,-1,923.0078,827.5176)" d="M0 0V-11.902C.146-11.477 .371-11.059 .672-10.648 .972-10.238 1.306-9.813 1.673-9.372 2.039-8.933 2.417-8.481 2.806-8.02 3.194-7.558 3.55-7.069 3.872-6.557 4.195-6.043 4.459-5.504 4.664-4.939 4.87-4.375 4.973-3.77 4.973-3.124 4.973-2.729 4.885-2.343 4.708-1.97 4.532-1.596 4.269-1.262 3.916-.968 3.564-.675 3.132-.44 2.618-.265 2.104-.088 1.511 0 .836 0ZM-2.926-1.937C-2.926-1.731-2.937-1.519-2.959-1.298-2.98-1.078-3.024-.869-3.091-.671-3.156-.474-3.252-.294-3.377-.132-3.501 .029-3.666 .161-3.871 .264V.286H1.475C3.704 .286 5.368-.019 6.469-.627 7.568-1.236 8.118-2.083 8.118-3.168 8.118-3.564 8.038-3.957 7.876-4.346 7.715-4.734 7.439-5.159 7.052-5.621 6.663-6.083 6.149-6.601 5.512-7.172 4.873-7.744 4.07-8.412 3.103-9.174 3.454-9.16 3.828-9.178 4.225-9.229 4.62-9.281 5.013-9.387 5.401-9.548 5.79-9.71 6.164-9.938 6.523-10.23 6.883-10.523 7.194-10.905 7.458-11.374 7.635-11.668 7.821-12.001 8.02-12.375 8.218-12.749 8.438-13.116 8.68-13.476 8.922-13.835 9.186-14.161 9.472-14.454 9.758-14.748 10.076-14.96 10.429-15.092V-15.114H6.271L4.137-11.353C3.931-10.985 3.696-10.645 3.433-10.329 3.168-10.014 2.875-9.775 2.553-9.614 1.849-10.201 1.247-10.766 .748-11.309 .25-11.851 0-12.387 0-12.914V-15.114H-2.926Z" fill="#383838"/>
</g>
</g>
</svg>
